<?xml version="1.0" ?><svg enable-background="new 0 0 512 512" id="Layer_1" version="1.1" viewBox="0 0 512 512" xml:space="preserve" xmlns="http://www.w3.org/2000/svg" xmlns:xlink="http://www.w3.org/1999/xlink"><g><g><g><path d="M108.6,493.2c0.1,0.2,0.2,0.5,0.3,0.7c1.8,4,6.9,4.2,10.3,2.7c44.2-19.8,88.3-39.5,132.5-59.3     c37.8-16.9,75.6-33.8,113.4-50.7c20.4-9.1,40.9-18.3,61.3-27.4c-1.3,0.3-2.5,0.7-3.8,1c2.5,0,5.4-1.7,7.7-2.8     c4-1.8,8-3.6,11.9-5.3c7.4-3.3,14.9-6.6,22.3-10c25.1-11.3,42-35.4,44.5-62.7c2.8-30.1-14.2-60.2-41.2-73.5     c-22.2-11-46.2-9.9-68.5,0.1c-15.3,6.9-30.7,13.7-46,20.6c-3.7,1.7-4.5,7-2.7,10.3c2.2,3.8,6.6,4.3,10.3,2.7     c12.6-5.6,25.2-11.3,37.8-16.9c4.8-2.1,9.5-4.5,14.5-6.3c11.4-4,23.7-4.7,35.4-1.7c24.9,6.4,43.9,28.4,45.6,54.3     c1.7,25.9-13,49.3-36.4,60c-12.9,5.9-25.9,11.6-38.9,17.4c1.3-0.3,2.5-0.7,3.8-1c-2.3,0-4.9,1.5-7,2.4c-3.4,1.5-6.9,3.1-10.3,4.6     c-11.9,5.3-23.8,10.6-35.7,16c-28.3,12.7-56.7,25.4-85,38c-35.4,15.9-70.9,31.7-106.3,47.6c-22.2,9.9-44.5,19.9-66.7,29.8     c3.4,0.9,6.8,1.8,10.3,2.7c-0.1-0.2-0.2-0.5-0.3-0.7c-1.7-3.7-7-4.5-10.3-2.7C107.4,485.1,106.9,489.5,108.6,493.2L108.6,493.2z"/><path d="M217.5,287.3c-22.3,10-44.5,19.9-66.8,29.9c-21.7,9.7-43.4,19.4-65.1,29.1c-12.7,5.7-25.5,11.4-38.2,17.1     c-3.7,1.7-4.5,7-2.7,10.3c2.2,3.8,6.6,4.3,10.3,2.7c17.8-8,35.5-15.9,53.3-23.8c30.2-13.5,60.5-27.1,90.7-40.6     c8.7-3.9,17.4-7.8,26.1-11.7c3.7-1.7,4.5-7,2.7-10.3C225.6,286.1,221.2,285.6,217.5,287.3L217.5,287.3z"/></g></g><g><g><path d="M93.3,346.2c-12.4-5.6-24.8-11.1-37.2-16.7c-20.6-9.3-36.1-27.7-38-50.9c-2.1-26,12.7-51.1,36.8-61.3     c10.9-4.6,23.3-6,34.9-3.7c6.6,1.3,12.6,3.9,18.8,6.6c14.3,6.4,28.5,12.8,42.8,19.1c3.7,1.7,8,1,10.3-2.7c1.9-3.2,1-8.6-2.7-10.3     c-13.8-6.2-27.7-12.4-41.5-18.6c-6.9-3.1-13.7-6.3-21-8.1c-13.5-3.3-28-2.8-41.2,1.5c-28.6,9.4-48.8,34.8-52,64.6     c-3.1,29.1,12.4,58.4,37.8,72.8c14.1,8,29.9,13.7,44.7,20.4c3.7,1.7,8,1,10.3-2.7C97.9,353.3,97,347.9,93.3,346.2L93.3,346.2z"/><path d="M252.2,433.7c41.1,18.4,82.2,36.8,123.2,55.1c5.8,2.6,11.6,5.2,17.4,7.8c3.4,1.5,8.5,1.3,10.3-2.7     c0.1-0.2,0.2-0.5,0.3-0.7c1.7-3.7,1-8-2.7-10.3c-3.2-1.9-8.6-1-10.3,2.7c-0.1,0.2-0.2,0.5-0.3,0.7c3.4-0.9,6.8-1.8,10.3-2.7     c-41.1-18.4-82.2-36.8-123.2-55.1c-5.8-2.6-11.6-5.2-17.4-7.8c-3.7-1.7-8-1-10.3,2.7C247.6,426.6,248.5,432,252.2,433.7     L252.2,433.7z"/><path d="M422.5,360.2C422.5,360.2,422.5,360.2,422.5,360.2c-1.3-0.3-2.5-0.7-3.8-1c12.8,5.7,25.6,11.4,38.3,17.2     c3.7,1.7,8,1,10.3-2.7c1.9-3.2,1-8.6-2.7-10.3c-6.7-3-13.5-6-20.2-9c-4.4-2-8.9-4-13.3-6c-2.5-1.1-5.9-3.2-8.6-3.2     C412.8,345.2,412.8,360.2,422.5,360.2L422.5,360.2z"/></g></g><g><g><path d="M465.2,363.6c-16.3-6.9-33.8-9.1-51.1-4.4c-15.5,4.2-29.5,13.3-39.5,25.8c-19.1,24.2-21.8,58.3-6.3,85.1     c16.7,28.8,51.6,43.4,83.9,35.2c29.8-7.6,52.3-33.3,56.2-63.7C512.7,409.3,494.7,377.2,465.2,363.6c-8.7-4-16.3,8.9-7.6,13     c20.7,9.5,35.3,29.3,36.4,52.4c1.2,24.7-12.8,47.6-35.1,58.1c-24.5,11.6-54.1,4.4-71.6-15.9c-15.6-18.1-18.6-45.2-7.7-66.4     c14.5-28.1,48.7-40.7,78-28.2c3.8,1.6,8,1.1,10.3-2.7C469.8,370.8,469,365.2,465.2,363.6z"/></g></g><g><g><path d="M146.9,400.6c-14.4-31.3-48.7-48.7-82.5-42.6c-29.3,5.3-53.5,28.9-59.7,58c-6.4,29.5,5.5,60,29.9,77.7     c26.9,19.5,64.5,18.1,90.5-2.2C152.6,469.9,160.6,432.3,146.9,400.6c-1.6-3.7-7-4.5-10.3-2.7c-3.9,2.2-4.3,6.6-2.7,10.3     c9.5,21.9,4.8,48.3-11.7,65.6c-18.5,19.5-48.7,24.5-72.4,11.8c-21.4-11.5-33.9-34.9-31.8-59.2c2-22.3,17.4-42.7,38.4-50.6     c30.7-11.5,63.9,3.1,77.5,32.5C138,417,150.9,409.3,146.9,400.6z"/></g></g><g><g><path d="M321.9,79.1c-13.6-18.4-28-36.3-43.1-53.5c-2.3-2.7-4.7-5.3-7.1-7.9c-1.9-2.1-3.8-4.1-5.7-6.2c-1-1.1-2-2.1-3-3.2     c-1-1.1-1.9-3.1-0.5-0.3c-2.1-4.2-8.7-4.9-11.8-1.5c-25.7,27.9-50.1,56.8-71.6,88.1c-13.4,19.6-26,40.3-34.1,62.7     c-7.5,20.5-8.1,41.6-2.4,62.8c13.5,50,59.9,85.9,111.7,86.8c51.8,0.8,99-34,114.1-83.4c7.2-23.5,6.2-46.9-2.7-69.6     C355.1,126.9,338.9,102.4,321.9,79.1c-2.4-3.3-6.5-4.8-10.3-2.7c-3.2,1.8-5.1,7-2.7,10.3c14.7,20,28.7,40.9,39,63.5     c7.2,15.7,11.6,31.3,10.2,48.5c-3.9,47.2-42.6,87-89.6,92.5c-46.3,5.4-92.2-21.8-108.5-65.8c-7.1-19.2-8.6-39.1-2.5-58.5     c6.3-19.9,17.2-38.3,28.5-55.7c22-33.7,48-64.5,75.2-94c-3.9-0.5-7.9-1-11.8-1.5c0.9,1.9,3.1,3.6,4.5,5.2     c2.1,2.3,4.2,4.5,6.2,6.8c2.2,2.4,4.4,4.9,6.6,7.3c14.7,16.7,28.8,33.9,42,51.8c2.4,3.3,6.5,4.8,10.3,2.7     C322.4,87.5,324.3,82.4,321.9,79.1z"/><path d="M231.3,289.1c-21-12-35.2-40-28-63.7c3.9-12.9,11.5-24.7,19.2-35.7c8-11.5,16.8-22.4,26.1-32.8     c4.2-4.7,8.5-9.2,12.7-13.8c-3.5,0-7.1,0-10.6,0c11.3,11.3,21.8,23.8,31.5,36.5c14.8,19.6,32.8,43.5,27.2,69.5     c-2,9.4,12.4,13.4,14.5,4c2.8-13.1,2-25.5-2.9-37.9c-5.8-14.4-14.3-27.5-23.5-40c-11-14.9-23-29.5-36.1-42.6     c-2.8-2.8-7.9-3-10.6,0c-14.6,15.8-28.8,31.9-41.1,49.7c-8.5,12.2-16.6,25.4-20.9,39.8c-3.9,13.2-2.6,27.3,2.3,40.2     c6.2,16.4,17.4,31.2,32.7,40C232.1,306.9,239.7,293.9,231.3,289.1L231.3,289.1z"/></g></g><g><g><path d="M289.8,301.7c17.7-10.2,29.4-29.1,34.1-48.6c2.3-9.4-12.2-13.4-14.5-4c-3.8,15.8-12.8,31.4-27.2,39.7     C273.9,293.5,281.4,306.5,289.8,301.7L289.8,301.7z"/></g></g></g></svg>