<?xml version="1.0" ?><svg enable-background="new 0 0 512 512" id="Layer_1" version="1.1" viewBox="0 0 512 512" xml:space="preserve" xmlns="http://www.w3.org/2000/svg" xmlns:xlink="http://www.w3.org/1999/xlink"><g><g><g><path d="M212.1,78.6c0-8.1-0.7-16.6,1.2-24.6c3-12.5,11.3-23,22.7-28.9c22.8-12,52.7-0.5,61.3,23.8c3.4,9.6,2.7,19.6,2.7,29.7     c0,9.7,15,9.7,15,0c0-10.9,0.6-21.9-2.8-32.4c-4.9-15-15.9-28.1-30.2-34.9c-29.6-14.1-66.3-1.4-79.7,28.8     c-5.5,12.5-5.2,25.2-5.2,38.5C197.1,88.3,212.1,88.3,212.1,78.6L212.1,78.6z"/><path d="M240.4,73.6c0-4.3-0.6-9.1,0.5-13.3c1.8-6.8,8-11.6,15.1-11.6c6.8,0,12.9,4.5,14.9,11c1.4,4.3,0.7,9.5,0.7,13.9     c0,9.7,15,9.7,15,0c0-8,0.4-15.9-3.4-23.3c-5.1-10.1-15.9-16.6-27.2-16.6c-11.2,0-22.2,6.5-27.2,16.6c-3.7,7.5-3.4,15.3-3.4,23.3     C225.4,83.3,240.4,83.3,240.4,73.6L240.4,73.6z"/></g></g><g><g><path d="M461.9,285.8c-0.2,42.5-13.1,84-37.6,118.8c-24.2,34.3-59.3,61.2-98.9,75.2c-39.9,14.1-83.7,15.7-124.4,4.5     c-41.1-11.3-77.7-35.6-104.7-68.5c-54.2-65.9-61-162.4-17.2-235.5c21.7-36.3,54.6-65.4,93.2-82.8c38.2-17.2,82.2-21.9,123.3-13.9     c84.2,16.5,150.6,85.7,164,170.4C461.2,264.6,461.9,275.2,461.9,285.8c0,9.7,15,9.7,15,0c-0.2-45.5-14-90.6-40.6-127.7     c-26.4-36.9-63.5-65.2-106.2-80.5c-42.4-15.2-89.7-16.7-133.1-4.8c-43.6,12-83.2,37.9-111.8,72.9C56.4,181,39.1,224.2,35.7,269.6     c-3.3,44.9,7.3,90.6,30.4,129.2c23.1,38.6,58.2,70.2,99.3,88.5c42,18.7,89,23.9,134.1,15.1c89.3-17.5,161.2-92.4,174.7-182.5     c1.7-11.3,2.6-22.7,2.7-34.1C476.9,276.2,461.9,276.2,461.9,285.8z"/><path d="M469.4,293.3c9.7,0,9.7-15,0-15C459.8,278.3,459.7,293.3,469.4,293.3L469.4,293.3z"/></g></g><g><g><path d="M341.2,194.6c-16.1,37.5-32.2,75-48.2,112.6c-1.5,3.5-3,6.9-4.4,10.4c-0.4,0.8-2.5,4.3-2.2,5.2c0-0.1,3.9-2.3,1.9-2.1     c-1.8,0.2-4.1,1.7-5.7,2.4c-5.8,2.5-11.6,5-17.3,7.4c-14.5,6.2-29,12.4-43.4,18.6c-20.4,8.7-40.8,17.5-61.2,26.2     c3.4,3.4,6.8,6.8,10.3,10.3C186.9,348,203,310.5,219,273c1.5-3.5,3-6.9,4.4-10.4c0.4-0.8,2.5-4.3,2.2-5.2c0,0.1-3.9,2.3-1.9,2.1     c1.8-0.2,4.1-1.7,5.7-2.4c5.8-2.5,11.6-5,17.3-7.4c14.5-6.2,29-12.4,43.4-18.6c20.4-8.7,40.8-17.5,61.2-26.2     c3.8-1.6,4.5-7.1,2.7-10.3c-2.2-3.9-6.6-4.3-10.3-2.7c-32.5,13.9-64.9,27.8-97.4,41.7c-5.7,2.4-11.4,4.9-17.2,7.3     c-4.4,1.9-9.2,3.4-13.3,5.7c-4.1,2.3-5.5,8.3-7.2,12.4c-9.4,21.9-18.7,43.8-28.1,65.6c-7.6,17.7-15.2,35.5-22.8,53.2     c-3.1,7.1,3.1,13.3,10.3,10.3c32.5-13.9,64.9-27.8,97.4-41.7c5.7-2.5,11.4-4.9,17.2-7.4c4.4-1.9,9.2-3.4,13.3-5.7     c4.1-2.3,5.5-8.3,7.2-12.4c9.4-21.9,18.7-43.7,28.1-65.6c7.6-17.7,15.2-35.5,22.8-53.2c1.6-3.8,1.1-8-2.7-10.3     C348.3,190,342.8,190.9,341.2,194.6z"/></g></g><g><g><path d="M91.2,276.5c11.3,0,22.5,0,33.8,0c-2.5-2.5-5-5-7.5-7.5c0,11.2,0,22.4,0,33.6c2.5-2.5,5-5,7.5-7.5c-11.3,0-22.5,0-33.8,0     c-9.7,0-9.7,15,0,15c11.3,0,22.5,0,33.8,0c4.1,0,7.5-3.4,7.5-7.5c0-11.2,0-22.4,0-33.6c0-4.1-3.4-7.5-7.5-7.5     c-11.3,0-22.5,0-33.8,0C81.5,261.5,81.5,276.5,91.2,276.5L91.2,276.5z"/></g></g><g><g><path d="M420.8,295.1c-11.3,0-22.5,0-33.8,0c2.5,2.5,5,5,7.5,7.5c0-11.2,0-22.4,0-33.6c-2.5,2.5-5,5-7.5,7.5     c11.3,0,22.5,0,33.8,0c9.7,0,9.7-15,0-15c-11.3,0-22.5,0-33.8,0c-4.1,0-7.5,3.4-7.5,7.5c0,11.2,0,22.4,0,33.6     c0,4.1,3.4,7.5,7.5,7.5c11.3,0,22.5,0,33.8,0C430.5,310.1,430.5,295.1,420.8,295.1L420.8,295.1z"/></g></g><g><g><path d="M265.3,121c0,10.4,0,20.7,0,31.1c2.5-2.5,5-5,7.5-7.5c-11.2,0-22.4,0-33.6,0c2.5,2.5,5,5,7.5,7.5c0-10.4,0-20.7,0-31.1     c0-9.7-15-9.7-15,0c0,10.4,0,20.7,0,31.1c0,4.1,3.4,7.5,7.5,7.5c11.2,0,22.4,0,33.6,0c4.1,0,7.5-3.4,7.5-7.5     c0-10.4,0-20.7,0-31.1C280.3,111.3,265.3,111.3,265.3,121L265.3,121z"/></g></g><g><g><path d="M280.3,450.7c0-11.6,0-23.1,0-34.7c0-4.1-3.4-7.5-7.5-7.5c-11.2,0-22.4,0-33.6,0c-4.1,0-7.5,3.4-7.5,7.5     c0,11.6,0,23.1,0,34.7c0,9.7,15,9.7,15,0c0-11.6,0-23.1,0-34.7c-2.5,2.5-5,5-7.5,7.5c11.2,0,22.4,0,33.6,0c-2.5-2.5-5-5-7.5-7.5     c0,11.6,0,23.1,0,34.7C265.3,460.3,280.3,460.3,280.3,450.7L280.3,450.7z"/></g></g><g><g><path d="M256,444c-65.5-0.3-126.1-42-148.6-103.8c-22.8-62.9-3-134.2,48.4-176.8c51-42.2,125.5-47.2,182-12.9     c56.2,34.1,86.4,101.7,73.3,166.3c-13.1,64.5-65.9,114.9-130.8,125.3C272.3,443.5,264.1,444,256,444c-9.6,0-9.7,15,0,15     c72.1-0.3,137.5-46,162.6-113.6c25.3-67.9,3.6-147.1-52.3-193c-56.2-46.1-137.3-52.7-199.7-14.8c-62.2,37.7-94.7,112-80.2,183.3     c14.1,69.5,72.5,125.4,142.7,136c8.9,1.4,17.9,2.1,26.9,2.1C265.7,459,265.7,444,256,444z"/></g></g></g></svg>