<?xml version="1.0" ?><svg enable-background="new 0 0 512 512" id="Layer_1" version="1.1" viewBox="0 0 512 512" xml:space="preserve" xmlns="http://www.w3.org/2000/svg" xmlns:xlink="http://www.w3.org/1999/xlink"><g><g><g><path d="M364.2,275.6c-12.8-18.7-25.6-37.4-38.5-56c0.3,1.3,0.7,2.5,1,3.8c-1.8-26.9-3.6-53.7-5.3-80.6     c-3.8,2.2-7.5,4.3-11.3,6.5c13.5,6.8,27,13.6,40.4,20.3c8.2,4.1,16.4,8.3,24.6,12.4c1.3,0.7,4.2,2.9,5.7,2.9     c1.2,0-2.2-2.2-2.3-2.4c0.1,0.3,0.5,0.6,0.7,1c7,11.6,15.5,22.5,23.1,33.7c12,17.4,23.9,34.9,35.9,52.3     c7.3,10.7,14.7,21.4,22,32.1c5.4,7.9,18.4,0.4,13-7.6c-18-26.2-36-52.4-54-78.6c-8.7-12.7-17.4-25.4-26.1-38.1     c-1.8-2.7-3.6-4.7-6.5-6.2c-6.9-3.5-13.8-7-20.8-10.4c-16.1-8.1-32.1-16.2-48.2-24.2c-4.7-2.4-11.7,0.4-11.3,6.5     c1.4,21.8,2.9,43.5,4.3,65.3c0.4,6-0.6,14.8,2.7,20.1c5.9,9.5,12.8,18.6,19.1,27.9c6.2,9.1,12.4,18.1,18.7,27.2     C356.7,291.1,369.7,283.6,364.2,275.6L364.2,275.6z"/></g></g><g><g><path d="M213.8,212.8c9.7,0,9.7-15,0-15C204.2,197.8,204.2,212.8,213.8,212.8L213.8,212.8z"/><path d="M182.3,283.2c11.1-21.8,22.3-43.5,33.4-65.3c6.7-13.2,12.8-26.3,15.1-41.1c3.8-25.5-1.6-52-15.7-73.7     C207,90.7,196.3,80,183.8,71.9c-6.8-4.4-14.3-7.9-21.5-11.6c-3.4-1.8-8.3-1.1-10.3,2.7c-13.9,27.1-27.7,54.2-41.6,81.3     C88.5,187.1,66.6,230,44.7,272.9c-5.1,9.9-10.2,19.8-15.2,29.8c-4.4,8.6,8.5,16.2,13,7.6C56.2,283.1,70.1,256,84,228.9     c21.9-42.9,43.9-85.7,65.8-128.6c5.1-9.9,10.2-19.8,15.2-29.8c-3.4,0.9-6.8,1.8-10.3,2.7c16.6,8.5,32.3,17.1,43.8,32.4     c14.2,18.7,20.7,42.7,17.9,66.1c-1.7,13.8-7.2,25.9-13.4,38.1c-6.5,12.7-13,25.4-19.5,38.1c-4.7,9.3-9.5,18.6-14.2,27.8     C165,284.2,177.9,291.8,182.3,283.2L182.3,283.2z"/></g></g><g><g><path d="M490.3,362.3c-0.3,32.4-21.2,62-52.4,71.8c-10.7,3.4-21.3,3.6-32.2,3.6c-29.3,0-58.5,0-87.8,0c-41,0-82,0-123,0     c-29.4,0-58.9,0-88.3,0c-9.2,0-18.2,0.1-27.2-2.1c-26.3-6.4-47.7-26.9-55-53.1c-8.4-30.4,3.4-64.1,29.5-82.1     c14.3-9.9,30.4-13.6,47.5-13.6c26,0,52,0,78,0c41,0,81.9,0,122.9,0c32.1,0,64.3,0,96.4,0c5.4,0,10.7,0,16.1,0     c26.5,0.2,51.3,14.1,64.9,37C486.7,335.6,490.2,348.8,490.3,362.3c0.1,9.6,15.1,9.7,15,0c-0.3-30.3-15.4-58.5-40.5-75.4     c-15.7-10.5-34-15-52.8-15c-26.2,0-52.4,0-78.6,0c-42.4,0-84.7,0-127.1,0c-32.2,0-64.4,0-96.7,0c-8.9,0-17.7-0.2-26.6,1.1     c-34.1,5.1-63,30.7-72.7,63.7c-9,30.4-0.9,63.9,20.6,87.1c17.1,18.5,41.5,28.7,66.7,28.8c22.4,0.1,44.8,0,67.2,0     c41.8,0,83.6,0,125.4,0c34.9,0,69.7,0,104.6,0c6.6,0,13.2,0,19.8,0c31-0.2,60.1-15.9,76.7-42.2c9.1-14.4,13.8-31.2,13.9-48.2     C505.4,352.7,490.4,352.7,490.3,362.3z"/></g></g><g><g><path d="M83.3,360c-0.4,9.6-14.9,9.7-14.9,0C68.4,350.3,82.9,350.4,83.3,360c0.4,9.6,15.4,9.7,15,0c-0.5-12.2-9.9-22.5-22.5-22.5     c-12.3,0-22.4,10.3-22.4,22.5c-0.1,12.2,10.3,22.4,22.4,22.4c12.6,0,21.9-10.3,22.5-22.4C98.8,350.3,83.8,350.4,83.3,360z"/></g></g><g><g><path d="M356.4,437.7c-22.7,0-45.3,0-68,0c-35.9,0-71.9,0-107.8,0c-8.3,0-16.6,0-24.9,0c2.2,3.8,4.3,7.5,6.5,11.3     c6.2-10.4,12-20.9,20.3-29.8c12.1-12.9,27.3-22.6,44.3-27.8c34.2-10.4,72.2-1.6,98.2,23.1c10.6,10,17.6,22.2,25,34.5     c4.9,8.3,17.9,0.8,13-7.6c-7.1-11.9-14-23.8-23.7-33.9c-13.8-14.4-31.5-25.1-50.6-30.8c-38.2-11.3-80.4-1.4-110,25.2     c-12.5,11.3-20.9,25.2-29.4,39.5c-2.9,4.9,0.8,11.3,6.5,11.3c22.7,0,45.3,0,68,0c35.9,0,71.9,0,107.8,0c8.3,0,16.6,0,24.9,0     C366,452.7,366,437.7,356.4,437.7z"/></g></g></g></svg>