<?xml version="1.0" ?><svg enable-background="new 0 0 512 512" id="Layer_1" version="1.1" viewBox="0 0 512 512" xml:space="preserve" xmlns="http://www.w3.org/2000/svg" xmlns:xlink="http://www.w3.org/1999/xlink"><g><g><g><path d="M375.8,132.8c15.5-19.2,17.3-42.4,10.8-65.5c-5.4-19.1-15.1-39.4-30.4-52.6c-14.3-12.4-33-15.7-49.2-4.6     c-16.8,11.6-27.4,31.1-34,49.9c-3.5,10.1-6,20.9-6.2,31.6c-0.3,15.2,5.3,29.3,14.7,41.1c2.6,3.2,7.9,2.6,10.6,0     c3.1-3.1,2.5-7.5,0-10.6c-12.2-15-11.9-33.8-6.8-51.5c4.6-16,12.4-32.4,24.7-43.9c10.2-9.6,22.1-11.7,33.6-3.1     c12.8,9.6,21.1,25.6,26.2,40.4c6.8,19.4,9.1,41-4.7,58.1c-2.6,3.2-3,7.5,0,10.6C367.8,135.4,373.2,135.9,375.8,132.8L375.8,132.8     z"/></g></g><g><g><path d="M359.3,125.5c4.6-12.8,0.3-27.3-5.3-39.1c-4.7-9.9-13.2-21.8-25.4-21.8c-12.3,0-20.7,11.9-25.4,21.8     c-5.6,11.8-9.9,26.3-5.3,39.1c3.3,9,17.8,5.1,14.5-4c-3.1-8.6-0.4-18,3.1-26.1c1.7-3.8,3.7-7.8,6.4-11c1.9-2.4,4.8-4.8,6.7-4.8     c1.9,0,4.5,2.2,6.4,4.4c2.8,3.3,4.9,7.3,6.6,11.2c3.6,8.2,6.4,17.7,3.3,26.4C341.6,130.7,356.1,134.6,359.3,125.5L359.3,125.5z"/></g></g><g><g><g><path d="M389.6,169.8c14.7-3.2,29.9,1.8,39.8,13.2c10.1,11.6,12.4,28.7,6.2,42.7c-1.7,3.7-1.1,8,2.7,10.3      c3.2,1.9,8.6,1,10.3-2.7c9-20.2,6.5-42.8-7.7-59.9c-13.4-16.2-35-22.4-55.3-18C376.2,157.4,380.1,171.9,389.6,169.8L389.6,169.8      z"/></g></g><g><g><path d="M196.1,279.1c-22.2,11.3-47.3,2.3-58.5-19.6c-6.4-12.4-12.7-24.9-19-37.4c-16.9-33.3-33.9-66.5-50.8-99.8      c-3.4-6.6-5.7-13.5-5.7-21.1c0-14.4,7.4-28.3,19.7-35.8c7.5-4.6,15.8-8.2,23.6-12.2c9.3-4.7,18.3-9.1,29.1-6.8      c10.4,2.3,18.3,9,23.1,18.4c1.9,3.7,3.8,7.5,5.7,11.2c8.3,16.4,16.7,32.8,25,49.2c16.1,31.6,32.3,63.3,48.3,94.9      c0.5,1,1,2,1.5,3.1c4.2,8.7,17.1,1.1,13-7.6c-14.5-30-30.2-59.5-45.3-89.2c-9.3-18.3-18.6-36.6-27.9-54.9      c-7.1-14-13.3-28.2-28.3-35.6c-14.2-7.1-30.2-6.6-44.2,0.4c-8.5,4.2-16.9,8.6-25.3,12.9c-28.5,14.5-41,48.2-26.8,77.4      c15.1,31.1,31.4,61.8,47.1,92.6c7.7,15.1,15.4,30.2,23.1,45.4c3.4,6.7,7.3,13.1,12.8,18.4c11.9,11.5,28.8,17.5,45.3,15.8      c7.9-0.8,15.1-3.3,22.2-6.9C212.3,287.7,204.7,274.8,196.1,279.1L196.1,279.1z"/></g></g></g><g><g><path d="M374.2,121c-12.2-6.2-25.5-4.9-38.7-4.9c-11,0-22-0.2-33,0c-22.2,0.4-39.8,17.9-40.3,40.1c-0.2,9.9,0,19.8,0,29.7     c0,11.2,0,22.4,0,33.7c0,4.1,3.4,7.5,7.5,7.5c34.4,0,68.8,0,103.2,0c4.9,0,9.8,0,14.6,0c4.1,0,7.5-3.4,7.5-7.5     c0-15.2,0-30.4,0-45.6c0-5.9,0.1-11.8,0-17.6C394.8,141.5,387.1,128.3,374.2,121c-8.4-4.8-16,8.2-7.6,13     c8.8,5,13.4,13.4,13.4,23.5c0,6.7,0,13.5,0,20.2c0,14,0,27.9,0,41.9c2.5-2.5,5-5,7.5-7.5c-34.4,0-68.8,0-103.2,0     c-4.9,0-9.8,0-14.6,0c2.5,2.5,5,5,7.5,7.5c0-20.1,0-40.1,0-60.2c0-4.6,0.2-9,2.1-13.3c4-9.2,13.1-14.8,23-15     c9.1-0.2,18.2,0,27.3,0c6.6,0,13.3,0,19.9,0c6,0,11.6,0,17.2,2.9C375.2,138.3,382.8,125.4,374.2,121z"/></g></g><g><g><path d="M269.7,212c-15.3,0-32.4-2-46.8,4.1c-11.4,4.9-20.9,14.1-25.9,25.4c-4,8.9-4.5,18-4.5,27.5c0,21.2,0,42.3,0,63.5     c0,33.9,0,67.8,0,101.8c0,7-0.2,14.1,0,21.1c0.8,26.4,20.8,49.2,47.1,52.9c8.3,1.2,16.9,0.6,25.2,0.6c15.7,0,31.4,0,47,0     c30.7,0,61.3,0,92,0c15.1,0,29.1-2.8,41.1-12.6c13.7-11.2,20-27.7,20-45c0-26.8,0-53.5,0-80.3c0-31.8,0-63.6,0-95.4     c0-8.9,0.6-18.1-1.8-26.8c-3.8-13.9-13.9-26-27-32c-9.3-4.3-18.8-4.9-28.8-4.9c-6.6,0-13.1,0-19.7,0c-9.7,0-9.7,15,0,15     c6.4,0,12.8,0,19.2,0c8.8,0,17.2,0,25.2,4.6c11.1,6.3,17.7,18,17.9,30.7c0,1.6,0,3.2,0,4.7c0,26.7,0,53.5,0,80.2     c0,30.7,0,61.4,0,92.1c0,6.4,0.5,13.2-0.2,19.6c-2.4,20.2-20,34.9-40.1,35.1c-23.8,0.2-47.6,0-71.4,0c-28.6,0-57.2,0-85.8,0     c-13.7,0-26.1-3.3-35.4-14.1c-8.2-9.5-9.5-20.8-9.5-32.6c0-29.2,0-58.3,0-87.5c0-24.4,0-48.9,0-73.3c0-10.6-1.6-22.6,1.1-33     c2.7-10.5,10.2-19.4,20.2-23.7c7.1-3.1,14.4-2.9,21.9-2.9c6.4,0,12.7,0,19.1,0C279.3,227,279.4,212,269.7,212L269.7,212z"/></g></g></g></svg>