<?xml version="1.0" ?><svg enable-background="new 0 0 512 512" id="Layer_1" version="1.1" viewBox="0 0 512 512" xml:space="preserve" xmlns="http://www.w3.org/2000/svg" xmlns:xlink="http://www.w3.org/1999/xlink"><g><g><g><path d="M354.2,114.8c0,10.9,0,21.7,0,32.6c0,7.5,0,15.1,0,22.6c0,4.2-0.8,9.3,0,13.5c0.3,1.3,0.5-1.3,0.1-1.2     c-0.5,0.1-1.5,3.6-1.7,4c-1,2.4-2,4.8-3,7.2c-2.3,5.5-4.6,11-6.9,16.4c-8.4,20.1-15.8,40.2-19.3,61.8c-4,24.2-3.2,48.6-3.2,73     c0,31,0,61.9,0,92.9c0,21.2,0,42.5,0,63.7c2.5-2.5,5-5,7.5-7.5c-41.9,0-83.7,0-125.6,0c-5.9,0-11.8,0-17.7,0c2.5,2.5,5,5,7.5,7.5     c0-48.9,0-97.8,0-146.7c0-20.3,0.9-40.8-0.6-61c-1.9-25.8-8.1-50.9-18.2-74.7c-4.6-10.9-9.2-21.7-13.7-32.6     c-0.2-0.5-1.3-4.1-1.8-4.3c0.7,0.2,0.1,3,0.2,1c0.2-2.1,0-4.3,0-6.4c0-7.8,0-15.5,0-23.3c0-12.8,0-25.7,0-38.5     c-2.5,2.5-5,5-7.5,7.5c23.8,0,47.6,0,71.4,0c38,0,75.9,0,113.9,0c8.7,0,17.5,0,26.2,0c9.7,0,9.7-15,0-15c-23.8,0-47.6,0-71.4,0     c-38,0-75.9,0-113.9,0c-8.7,0-17.5,0-26.2,0c-4.1,0-7.5,3.4-7.5,7.5c0,10.9,0,21.7,0,32.6c0,12-0.6,24.1,0,36.1     c0.2,4.8,3.3,9.6,5.1,13.9c2.1,4.9,4.1,9.9,6.2,14.8c8.2,19.5,15.6,39.1,19.4,60c4.3,23.9,3.3,48.4,3.3,72.6c0,31,0,61.9,0,92.9     c0,21.2,0,42.5,0,63.7c0,4.1,3.4,7.5,7.5,7.5c41.9,0,83.7,0,125.6,0c5.9,0,11.8,0,17.7,0c4.1,0,7.5-3.4,7.5-7.5     c0-48.9,0-97.8,0-146.7c0-20.3-0.9-40.8,0.6-61c1.8-24.9,8.4-48.9,18.1-71.9c4.7-11.1,9.3-22.1,14-33.2c1.7-4,1.4-7.7,1.4-12     c0-7.8,0-15.5,0-23.3c0-12.8,0-25.7,0-38.5C369.2,105.1,354.2,105.1,354.2,114.8z"/></g></g><g><g><path d="M354.2,166.6c0,5.3-0.4,10.9,0,16.2c0.2,2.2,0.1-0.5,0.1-0.5c-0.6,0.3-1.4,3.4-1.7,4c-1,2.4-2,4.7-3,7.1     c2.4-1.8,4.8-3.7,7.2-5.5c-22.7,0-45.3,0-68,0c-36.3,0-72.6,0-108.9,0c-8.3,0-16.6,0-24.9,0c2.4,1.8,4.8,3.7,7.2,5.5     c-1-2.4-2-4.7-3-7.1c-0.4-1-0.8-3.1-1.6-3.8c-0.5-0.5-0.2,2.4,0,0.3c0.6-5.3,0-10.9,0-16.2c-2.5,2.5-5,5-7.5,7.5     c23.8,0,47.6,0,71.4,0c38,0,75.9,0,113.9,0c8.7,0,17.5,0,26.2,0c9.7,0,9.7-15,0-15c-23.8,0-47.6,0-71.4,0c-38,0-75.9,0-113.9,0     c-8.7,0-17.5,0-26.2,0c-4.1,0-7.5,3.4-7.5,7.5c0,5.5-0.3,11.1,0,16.6c0.2,4.9,3.2,9.7,5.1,14.1c1.3,3.1,3.6,5.5,7.2,5.5     c22.7,0,45.3,0,68,0c36.3,0,72.6,0,108.9,0c8.3,0,16.6,0,24.9,0c3.7,0,5.9-2.4,7.2-5.5c1.9-4.4,4.9-9.3,5.1-14.1     c0.2-5.5,0-11.1,0-16.6C369.2,157,354.2,157,354.2,166.6z"/></g></g><g><g><path d="M256,18.1c8,0,6.9,8.8,6.9,14.1c0,7.2,0.3,14.6,0,21.8c-0.4,8.8-12.8,10.4-13.8,1c-0.6-6.1,0-12.6,0-18.7     C249.1,30.3,246.9,18.6,256,18.1c9.6-0.5,9.7-15.5,0-15c-9.2,0.4-17.4,5.7-20.6,14.6c-1.5,4.3-1.3,8.8-1.3,13.3     c0,5.6,0,11.2,0,16.9c0,4.3-0.3,8.7,0.8,12.9c5.1,18.4,30.6,21,40,4.8c5-8.6,2.9-21.9,2.9-31.5c0-4.7,0.4-9.8-0.7-14.4     c-2.3-9.6-11.4-16.5-21.2-16.5C246.3,3.1,246.3,18.1,256,18.1z"/></g></g><g><g><path d="M304.4,61.3c2.7-5.8,5.4-11.5,8.2-17.3c2.2-4.6,4.8-14.4,10.9-14.7c3.9-0.2,7.7,2.9,7.2,8.1c-0.1,0.9-0.6,1.9-0.3,1.3     c-0.1,0.3-0.2,0.5-0.4,0.8c-0.6,1.3-1.2,2.5-1.8,3.7c-3.3,7.1-6.6,14.1-10,21.2c-1.6,3.3-3.4,6.4-7.6,6.2     c-2.3-0.1-3.7-0.5-5.4-2.9c-1.8-2.6-1.3-5.4-0.2-8.1c1.6-3.8-1.7-8.2-5.2-9.2c-4.3-1.2-7.7,1.5-9.2,5.2     c-7.5,18.1,12,36,29.5,27.9c10-4.7,13.6-17,18-26.3c5.1-10.8,11.7-22.2,3.6-33.6c-9.8-13.7-30.5-11.2-37.7,3.6     c-4.3,8.8-8.4,17.7-12.5,26.6C287.3,62.4,300.2,70,304.4,61.3z"/></g></g><g><g><path d="M185.8,29.6c-1.2,0.6,1-0.3,1.4-0.3c1.2-0.1,2.4,0,3.5,0.5c2,0.8,3.1,2.3,4,4.1c1.1,2.2,2.1,4.5,3.2,6.8     c3.1,6.7,6.6,13.3,9.5,20.1c0.1,0.2,0.2,0.4,0.3,0.5c-0.5-1.2,0.3,1,0.3,1.5c0.3,2.4-0.7,4.9-2.6,6.4c-1.3,1.1-2.5,1.6-4.9,1.4     c-2.5-0.3-4.3-1.8-5.5-3.9c-3.2-5.5-5.6-11.7-8.3-17.5c-1.6-3.3-3.2-6.5-4.7-9.9c-0.1-0.2-0.2-0.5-0.3-0.7     c0.5,1.4-0.2-0.7-0.2-0.8c-0.1-0.7-0.2-1.3-0.2-2C181.4,32.8,183.3,30.9,185.8,29.6c8.5-4.5,1-17.5-7.6-13     c-7.9,4.2-12.7,12.7-11.8,21.7c0.5,4.8,2.9,9.1,4.9,13.4c2.4,5.1,4.8,10.2,7.2,15.3c1.8,3.8,3.3,7.7,6,10.9     c12.8,14.7,38.1,5.8,38.4-13.9c0.1-5.3-2.1-9.7-4.3-14.3c-2.4-5-4.7-10-7.1-15c-2-4.2-3.6-8.8-6.6-12.4     c-6.5-8.1-17.6-10-26.8-5.7C169.5,20.8,177.1,33.7,185.8,29.6z"/></g></g><g><g><path d="M254.5,306c5.4,0,15-2.1,15.7,5.5c0.4,4.6,0,9.4,0,14c0,17.1,0,34.1,0,51.2c0,3.7,1.1,9.8-2.5,12.1     c-2.7,1.7-7.4,0.9-10.4,0.9c-3.7,0-7.5-0.3-8.2-4.8c-0.6-3.8,0-8.2,0-12c0-8.7,0-17.4,0-26c0-9.2,0-18.4,0-27.5     C249.1,314.6,247.7,306.3,254.5,306c9.6-0.5,9.7-15.5,0-15c-12.6,0.6-20.4,10.2-20.4,22.4c0,8,0,16.1,0,24.1     c0,10.5,0,20.9,0,31.4c0,5.5-0.4,11.2,0.1,16.6c0.7,8,5.7,15,13.3,17.8c4.9,1.8,10.6,1.3,15.7,1.3c12.5-0.1,21.8-8.5,22-21.2     c0.3-17.6,0-35.2,0-52.8c0-6.6,0.4-13.3,0-19.9c-0.5-9.1-6.7-17.1-15.8-19.2c-4.7-1.1-10.1-0.5-14.9-0.5     C244.9,291,244.8,306,254.5,306z"/></g></g></g></svg>